<svg xmlns="http://www.w3.org/2000/svg" xmlns:xlink="http://www.w3.org/1999/xlink"><symbol id="icon-editor-contrast" viewBox="-35.42 -7.96 31.92 31.92"><path fill="#231F20" d="M-19.46-3.96C-12.86-3.96-7.5 1.41-7.5 8s-5.37 11.96-11.96 11.96S-31.42 14.59-31.42 8s5.36-11.96 11.96-11.96m0-4a15.96 15.96 0 100 31.92 15.96 15.96 0 000-31.92z"/><path d="M-19.46 16.33a8.52 8.52 0 100-17.04"/></symbol><symbol id="icon-editor-crop"><path fill="none" d="M0 0h48v48H0V0z"/><path d="M34 30h4V14a4 4 0 00-4-4H18v4h16v16zm-20 4V2h-4v8H2v4h8v20a4 4 0 004 4h20v8h4v-8h8v-4H14z"/></symbol><symbol id="icon-editor-fill"><path fill="none" d="M0 0h48v48H0V0z"/><path d="M33.12 17.88L15.24 0l-2.83 2.83 4.76 4.76L6.88 17.88a3 3 0 000 4.24l11 11c.58.59 1.35.88 2.12.88s1.54-.29 2.12-.88l11-11a3 3 0 000-4.24zM10.41 20L20 10.42 29.59 20H10.41zM38 23s-4 4.33-4 7a4 4 0 108 0c0-2.67-4-7-4-7zM0 40h48v3H0z"/></symbol></svg>